<svg width="325" height="49" viewBox="0 0 325 49" fill="none" xmlns="http://www.w3.org/2000/svg">
<rect x="0.5" y="0.5" width="48" height="48" rx="24" fill="white"/>
<rect x="0.5" y="0.5" width="48" height="48" rx="24" stroke="#222222"/>
<path d="M27.686 17.0141H29.7405V13.5388C28.7458 13.4353 27.7462 13.3843 26.7461 13.3858C23.7735 13.3858 21.7408 15.1999 21.7408 18.5222V21.3855H18.3857V25.2761H21.7408V35.2429H25.7625V25.2761H29.1067L29.6094 21.3855H25.7625V18.9047C25.7625 17.7572 26.0685 17.0141 27.686 17.0141Z" fill="#222222"/>
<rect x="69.5" y="0.5" width="48" height="48" rx="24" fill="white"/>
<rect x="69.5" y="0.5" width="48" height="48" rx="24" stroke="#222222"/>
<path d="M99.3358 17.3526C99.0765 17.3526 98.8229 17.4295 98.6072 17.5736C98.3916 17.7177 98.2235 17.9225 98.1242 18.1621C98.025 18.4018 97.999 18.6655 98.0496 18.9199C98.1002 19.1742 98.2251 19.4079 98.4085 19.5913C98.5919 19.7747 98.8256 19.8996 99.08 19.9502C99.3344 20.0008 99.5981 19.9749 99.8377 19.8756C100.077 19.7763 100.282 19.6083 100.426 19.3926C100.57 19.1769 100.647 18.9234 100.647 18.664C100.647 18.3162 100.509 17.9826 100.263 17.7367C100.017 17.4907 99.6837 17.3526 99.3358 17.3526ZM104.363 19.9973C104.342 19.0905 104.172 18.1934 103.86 17.3416C103.582 16.6129 103.15 15.9529 102.593 15.4073C102.051 14.8471 101.39 14.4174 100.658 14.1505C99.8087 13.8294 98.9106 13.6557 98.0026 13.6369C96.8441 13.5713 96.4726 13.5713 93.5 13.5713C90.5274 13.5713 90.1558 13.5713 88.9974 13.6369C88.0894 13.6557 87.1913 13.8294 86.3418 14.1505C85.6114 14.4201 84.9505 14.8495 84.4074 15.4073C83.8472 15.9484 83.4175 16.6099 83.1506 17.3416C82.8295 18.1912 82.6558 19.0893 82.637 19.9973C82.5714 21.1557 82.5714 21.5273 82.5714 24.4999C82.5714 27.4724 82.5714 27.844 82.637 29.0024C82.6558 29.9104 82.8295 30.8085 83.1506 31.6581C83.4175 32.3898 83.8472 33.0513 84.4074 33.5924C84.9505 34.1503 85.6114 34.5797 86.3418 34.8492C87.1913 35.1703 88.0894 35.3441 88.9974 35.3629C90.1558 35.4284 90.5274 35.4284 93.5 35.4284C96.4726 35.4284 96.8441 35.4284 98.0026 35.3629C98.9106 35.3441 99.8087 35.1703 100.658 34.8492C101.39 34.5824 102.051 34.1526 102.593 33.5924C103.152 33.0488 103.585 32.3883 103.86 31.6581C104.172 30.8063 104.342 29.9092 104.363 29.0024C104.363 27.844 104.429 27.4724 104.429 24.4999C104.429 21.5273 104.429 21.1557 104.363 19.9973ZM102.396 28.8713C102.388 29.565 102.262 30.2523 102.024 30.904C101.85 31.3796 101.57 31.8094 101.205 32.1608C100.85 32.522 100.421 32.8017 99.9478 32.9804C99.2962 33.2184 98.6088 33.344 97.9151 33.352C96.8223 33.4066 96.4179 33.4176 93.5437 33.4176C90.6695 33.4176 90.2651 33.4176 89.1723 33.352C88.452 33.3655 87.7347 33.2546 87.0521 33.0241C86.5994 32.8363 86.1902 32.5573 85.85 32.2045C85.4873 31.8534 85.2105 31.4233 85.0413 30.9477C84.7745 30.2867 84.6265 29.5838 84.6041 28.8713C84.6041 27.7784 84.5386 27.3741 84.5386 24.4999C84.5386 21.6256 84.5386 21.2213 84.6041 20.1284C84.609 19.4192 84.7385 18.7164 84.9866 18.052C85.179 17.5907 85.4743 17.1795 85.85 16.8499C86.182 16.4741 86.5923 16.1757 87.0521 15.9756C87.7183 15.7352 88.4204 15.6096 89.1286 15.604C90.2214 15.604 90.6258 15.5384 93.5 15.5384C96.3742 15.5384 96.7786 15.5384 97.8714 15.604C98.5651 15.612 99.2525 15.7376 99.9041 15.9756C100.401 16.1599 100.846 16.4595 101.205 16.8499C101.563 17.1856 101.843 17.596 102.024 18.052C102.267 18.7175 102.393 19.42 102.396 20.1284C102.45 21.2213 102.461 21.6256 102.461 24.4999C102.461 27.3741 102.45 27.7784 102.396 28.8713ZM93.5 18.8935C92.3916 18.8957 91.3088 19.2263 90.3882 19.8437C89.4677 20.461 88.7508 21.3373 88.3282 22.362C87.9055 23.3866 87.7961 24.5135 88.0136 25.6003C88.2312 26.6871 88.766 27.685 89.5505 28.468C90.335 29.251 91.334 29.7838 92.4212 29.9993C93.5084 30.2147 94.6351 30.1031 95.6589 29.6784C96.6827 29.2538 97.5576 28.5352 98.1732 27.6134C98.7887 26.6917 99.1173 25.6082 99.1173 24.4999C99.1187 23.7623 98.9743 23.0317 98.6924 22.3502C98.4105 21.6686 97.9966 21.0495 97.4746 20.5285C96.9525 20.0074 96.3326 19.5948 95.6505 19.3142C94.9684 19.0336 94.2375 18.8906 93.5 18.8935ZM93.5 28.1391C92.7802 28.1391 92.0766 27.9256 91.4781 27.5258C90.8797 27.1259 90.4132 26.5575 90.1378 25.8925C89.8623 25.2275 89.7903 24.4958 89.9307 23.7899C90.0711 23.0839 90.4177 22.4355 90.9267 21.9265C91.4356 21.4176 92.0841 21.071 92.79 20.9306C93.4959 20.7902 94.2277 20.8622 94.8926 21.1377C95.5576 21.4131 96.126 21.8796 96.5259 22.478C96.9258 23.0765 97.1392 23.7801 97.1392 24.4999C97.1392 24.9778 97.0451 25.451 96.8622 25.8925C96.6793 26.3341 96.4112 26.7352 96.0733 27.0732C95.7354 27.4111 95.3342 27.6792 94.8926 27.8621C94.4511 28.0449 93.9779 28.1391 93.5 28.1391Z" fill="#222222"/>
<rect x="138.5" y="0.5" width="48" height="48" rx="24" fill="white"/>
<rect x="138.5" y="0.5" width="48" height="48" rx="24" stroke="#222222"/>
<path d="M174.512 15.7029C174.512 15.51 174.461 15.3206 174.364 15.1538C174.267 14.9871 174.128 14.8489 173.96 14.7535C173.792 14.658 173.602 14.6086 173.41 14.6103C173.217 14.612 173.028 14.6647 172.862 14.7631C172.222 15.1443 171.533 15.4362 170.814 15.6308C169.787 14.7503 168.479 14.2685 167.126 14.2735C165.643 14.2753 164.219 14.8534 163.154 15.8858C162.088 16.9182 161.466 18.3241 161.418 19.8066C158.494 19.3403 155.843 17.8138 153.972 15.5182C153.859 15.3816 153.715 15.274 153.552 15.2046C153.389 15.1352 153.212 15.106 153.035 15.1193C152.859 15.134 152.688 15.1914 152.539 15.2866C152.389 15.3818 152.265 15.5119 152.177 15.6658C151.726 16.4525 151.468 17.3345 151.422 18.2401C151.376 19.1456 151.544 20.0493 151.913 20.8776L151.911 20.8787C151.744 20.9808 151.607 21.1239 151.512 21.2942C151.417 21.4645 151.368 21.6564 151.369 21.8513C151.367 22.0118 151.377 22.1721 151.398 22.3311C151.51 23.706 152.119 24.9929 153.112 25.9507C153.044 26.0791 153.003 26.2196 152.991 26.3641C152.978 26.5086 152.995 26.6541 153.039 26.7922C153.472 28.1409 154.393 29.2796 155.621 29.9855C154.373 30.4679 153.026 30.636 151.697 30.4751C151.452 30.4445 151.203 30.4983 150.992 30.6276C150.781 30.7569 150.62 30.9541 150.535 31.1869C150.451 31.4196 150.448 31.6742 150.527 31.9088C150.606 32.1434 150.763 32.3442 150.971 32.4783C153.255 33.9493 155.915 34.7313 158.632 34.7307C161.713 34.7654 164.719 33.7809 167.182 31.9303C169.646 30.0798 171.429 27.467 172.254 24.4982C172.64 23.2051 172.837 21.8631 172.839 20.5137L172.838 20.2951C173.408 19.6796 173.85 18.9564 174.138 18.1678C174.425 17.3793 174.553 16.5413 174.512 15.7029ZM170.899 19.2132C170.718 19.4265 170.627 19.7013 170.643 19.9804C170.654 20.1607 170.653 20.3421 170.653 20.5137C170.651 21.6537 170.484 22.7875 170.157 23.8797C169.483 26.406 167.981 28.6331 165.892 30.2044C163.802 31.7757 161.246 32.6003 158.632 32.546C157.693 32.5462 156.758 32.4358 155.845 32.2171C157.009 31.8416 158.098 31.263 159.06 30.5079C159.238 30.3683 159.367 30.1773 159.432 29.9609C159.496 29.7446 159.492 29.5136 159.42 29.2997C159.348 29.0858 159.212 28.8994 159.029 28.7662C158.847 28.6331 158.628 28.5597 158.402 28.556C157.494 28.5418 156.626 28.1755 155.983 27.5342C156.146 27.5036 156.308 27.4654 156.469 27.4195C156.705 27.3523 156.912 27.2077 157.055 27.0089C157.199 26.81 157.272 26.5685 157.262 26.3233C157.252 26.0781 157.16 25.8434 157 25.657C156.84 25.4707 156.622 25.3435 156.381 25.296C155.854 25.1919 155.358 24.9675 154.931 24.6403C154.505 24.3132 154.16 23.8921 153.923 23.4098C154.12 23.4368 154.319 23.4535 154.518 23.46C154.755 23.4639 154.987 23.3923 155.18 23.2555C155.374 23.1188 155.518 22.924 155.593 22.6994C155.666 22.4729 155.662 22.2291 155.583 22.0049C155.504 21.7806 155.354 21.5882 155.156 21.4568C154.675 21.1367 154.281 20.7023 154.01 20.1924C153.738 19.6826 153.597 19.1134 153.599 18.5356C153.599 18.4635 153.601 18.3903 153.606 18.3192C156.055 20.604 159.233 21.9508 162.578 22.1224C162.747 22.1288 162.915 22.0967 163.07 22.0285C163.224 21.9604 163.362 21.8579 163.471 21.7289C163.579 21.5992 163.656 21.4461 163.695 21.2817C163.734 21.1173 163.734 20.946 163.696 20.7814C163.633 20.5205 163.601 20.2531 163.601 19.9847C163.602 19.0501 163.974 18.154 164.635 17.4931C165.296 16.8322 166.192 16.4603 167.126 16.4592C167.607 16.4578 168.084 16.5561 168.525 16.748C168.966 16.9398 169.362 17.2211 169.689 17.5739C169.815 17.7096 169.974 17.8107 170.15 17.8677C170.326 17.9247 170.514 17.9357 170.696 17.8996C171.145 17.8123 171.587 17.6947 172.02 17.5477C171.725 18.1518 171.348 18.7123 170.899 19.2132Z" fill="#222222"/>
<rect x="207.5" y="0.5" width="48" height="48" rx="24" fill="white"/>
<rect x="207.5" y="0.5" width="48" height="48" rx="24" stroke="#222222"/>
<path d="M237.511 21.2204C236.532 21.2203 235.569 21.4624 234.708 21.9253C234.629 21.718 234.489 21.5396 234.306 21.4137C234.124 21.2878 233.907 21.2204 233.686 21.2204H229.314C229.024 21.2204 228.746 21.3356 228.541 21.5405C228.337 21.7455 228.221 22.0234 228.221 22.3133V35.4276C228.221 35.7174 228.337 35.9954 228.541 36.2003C228.746 36.4053 229.024 36.5204 229.314 36.5204H233.686C233.976 36.5204 234.254 36.4053 234.458 36.2003C234.663 35.9954 234.779 35.7174 234.779 35.4276V29.4169C234.779 29.127 234.894 28.849 235.099 28.6441C235.304 28.4391 235.582 28.324 235.871 28.324C236.161 28.324 236.439 28.4391 236.644 28.6441C236.849 28.849 236.964 29.127 236.964 29.4169V35.4276C236.964 35.7174 237.079 35.9954 237.284 36.2003C237.489 36.4053 237.767 36.5204 238.057 36.5204H242.429C242.718 36.5204 242.996 36.4053 243.201 36.2003C243.406 35.9954 243.521 35.7174 243.521 35.4276V27.2311C243.519 25.6376 242.885 24.11 241.759 22.9832C240.632 21.8564 239.104 21.2225 237.511 21.2204ZM241.336 34.3347H239.15V29.4169C239.15 28.5473 238.805 27.7134 238.19 27.0986C237.575 26.4837 236.741 26.1383 235.871 26.1383C235.002 26.1383 234.168 26.4837 233.553 27.0986C232.938 27.7134 232.593 28.5473 232.593 29.4169V34.3347H230.407V23.4061H232.593V24.1744C232.593 24.4009 232.663 24.6219 232.794 24.8067C232.925 24.9916 233.11 25.1311 233.324 25.2061C233.538 25.2811 233.769 25.2879 233.987 25.2254C234.205 25.163 234.398 25.0344 234.539 24.8575C235.03 24.2346 235.703 23.7806 236.464 23.5586C237.225 23.3367 238.036 23.358 238.785 23.6195C239.533 23.881 240.181 24.3698 240.639 25.0174C241.096 25.6651 241.34 26.4394 241.336 27.2322V34.3347ZM226.036 21.2204H221.664C221.374 21.2204 221.096 21.3356 220.891 21.5405C220.687 21.7455 220.571 22.0234 220.571 22.3133V35.4276C220.571 35.7174 220.687 35.9954 220.891 36.2003C221.096 36.4053 221.374 36.5204 221.664 36.5204H226.036C226.326 36.5204 226.604 36.4053 226.808 36.2003C227.013 35.9954 227.129 35.7174 227.129 35.4276V22.3133C227.129 22.0234 227.013 21.7455 226.808 21.5405C226.604 21.3356 226.326 21.2204 226.036 21.2204ZM224.943 34.3347H222.757V23.4061H224.943V34.3347ZM223.866 13.071C223.388 13.0418 222.908 13.1104 222.457 13.2725C222.006 13.4346 221.592 13.6868 221.242 14.0138C220.891 14.3408 220.611 14.7358 220.418 15.1746C220.224 15.6135 220.123 16.087 220.118 16.5665C220.114 17.0459 220.208 17.5212 220.393 17.9634C220.578 18.4056 220.852 18.8054 221.196 19.1386C221.541 19.4717 221.95 19.7312 222.399 19.9012C222.847 20.0713 223.325 20.1483 223.804 20.1276H223.835C224.314 20.1549 224.793 20.0845 225.244 19.9206C225.694 19.7567 226.107 19.5027 226.456 19.1742C226.806 18.8456 227.085 18.4494 227.276 18.0096C227.467 17.5698 227.567 17.0956 227.569 16.616C227.572 16.1364 227.476 15.6613 227.289 15.2198C227.101 14.7783 226.826 14.3796 226.48 14.0479C226.133 13.7162 225.723 13.4586 225.273 13.2906C224.824 13.1227 224.345 13.0479 223.866 13.071ZM223.835 17.9419H223.804C223.615 17.9649 223.423 17.9473 223.242 17.8902C223.06 17.8331 222.893 17.7378 222.751 17.6107C222.609 17.4836 222.496 17.3276 222.42 17.1533C222.343 16.9789 222.305 16.7902 222.307 16.5998C222.307 15.7835 222.919 15.2567 223.866 15.2567C224.057 15.2316 224.251 15.2476 224.435 15.3037C224.619 15.3598 224.789 15.4546 224.934 15.5819C225.078 15.7091 225.194 15.8658 225.273 16.0414C225.351 16.2169 225.392 16.4074 225.391 16.5998C225.391 17.4151 224.779 17.9419 223.834 17.9419H223.835Z" fill="#222222"/>
<rect x="276.5" y="0.5" width="48" height="48" rx="24" fill="white"/>
<rect x="276.5" y="0.5" width="48" height="48" rx="24" stroke="#222222"/>
<path d="M303.931 24.2952C303.493 24.0141 303.018 23.7959 302.519 23.6472C302.213 23.5543 301.874 23.4636 301.525 23.3772C301.219 23.292 300.856 23.2046 300.408 23.1062C299.873 22.9941 299.348 22.8392 298.838 22.6428C298.576 22.5408 298.344 22.3725 298.165 22.1543C298.035 21.9758 297.973 21.7563 297.99 21.5358C297.99 21.2994 298.069 21.0696 298.214 20.8833C298.418 20.6447 298.682 20.4654 298.979 20.3642C299.479 20.1926 300.005 20.1126 300.533 20.1282C300.942 20.1214 301.349 20.1752 301.742 20.2877C302.003 20.361 302.248 20.4802 302.467 20.6396C302.608 20.7406 302.729 20.8678 302.822 21.0145C302.889 21.1418 302.981 21.2546 303.093 21.3462C303.204 21.4379 303.332 21.5066 303.47 21.5485C303.608 21.5904 303.753 21.6046 303.896 21.5903C304.04 21.576 304.179 21.5334 304.306 21.4651C304.433 21.3968 304.545 21.3041 304.636 21.1922C304.727 21.0804 304.794 20.9517 304.835 20.8135C304.876 20.6753 304.89 20.5304 304.874 20.3871C304.859 20.2438 304.816 20.1049 304.746 19.9784C304.516 19.5708 304.205 19.2146 303.832 18.9315C303.401 18.6004 302.912 18.3525 302.39 18.2004C301.788 18.0224 301.163 17.9355 300.535 17.9425C299.736 17.9253 298.942 18.0549 298.19 18.325C297.511 18.5723 296.914 19.0046 296.467 19.573C296.039 20.1382 295.807 20.8278 295.807 21.5369C295.789 22.2428 296.013 22.9336 296.441 23.4953C296.854 24.0157 297.396 24.4194 298.012 24.6668C298.478 24.8461 298.955 24.9951 299.441 25.1127C299.449 25.116 299.456 25.1236 299.465 25.1258C299.674 25.1892 300.009 25.2733 300.492 25.3772C300.681 25.4187 300.858 25.4635 301.035 25.5083C301.053 25.5127 301.078 25.5181 301.094 25.5236L301.114 25.5258C301.385 25.5957 301.646 25.6668 301.885 25.74C302.179 25.826 302.46 25.9526 302.719 26.1159C302.881 26.2174 303.017 26.3551 303.116 26.5181C303.212 26.717 303.256 26.9369 303.245 27.1574C303.26 27.4429 303.178 27.725 303.011 27.9574C302.786 28.2501 302.482 28.472 302.135 28.5967C301.617 28.7965 301.064 28.8902 300.509 28.8721C299.868 28.8968 299.23 28.7679 298.648 28.4962C298.38 28.3531 298.149 28.1482 297.975 27.8984C297.853 27.7385 297.777 27.5485 297.754 27.3487C297.754 27.0588 297.639 26.7809 297.434 26.5759C297.229 26.371 296.951 26.2558 296.661 26.2558C296.372 26.2558 296.094 26.371 295.889 26.5759C295.684 26.7809 295.569 27.0588 295.569 27.3487C295.587 27.9936 295.798 28.6181 296.176 29.141C296.554 29.6848 297.057 30.1298 297.643 30.4382C298.534 30.8731 299.518 31.0858 300.509 31.0578C301.352 31.0782 302.19 30.9277 302.973 30.6152C303.7 30.336 304.332 29.853 304.792 29.224C305.23 28.6112 305.454 27.8717 305.431 27.1192C305.441 26.5358 305.3 25.9597 305.021 25.4471C304.752 24.9844 304.379 24.5904 303.931 24.2963V24.2952ZM311.823 26.3476C312.117 24.5516 311.98 22.7112 311.423 20.9787C310.865 19.2462 309.903 17.6714 308.616 16.3844C307.329 15.0975 305.754 14.1354 304.022 13.5778C302.289 13.0201 300.449 12.883 298.653 13.1776C297.327 12.5418 295.836 12.3333 294.386 12.5809C292.937 12.8284 291.6 13.5199 290.56 14.5598C289.52 15.5996 288.828 16.9367 288.581 18.3863C288.333 19.8359 288.542 21.3266 289.178 22.6527C288.883 24.4485 289.021 26.2886 289.578 28.0209C290.136 29.7531 291.098 31.3278 292.385 32.6146C293.671 33.9014 295.246 34.8634 296.978 35.421C298.711 35.9787 300.551 36.116 302.347 35.8216C303.673 36.4574 305.163 36.6659 306.613 36.4183C308.063 36.1708 309.4 35.4793 310.439 34.4394C311.479 33.3996 312.171 32.0625 312.418 30.6129C312.666 29.1633 312.457 27.6726 311.822 26.3465L311.823 26.3476ZM305.417 34.3353C304.588 34.335 303.773 34.1252 303.046 33.7255C302.821 33.6013 302.559 33.5603 302.306 33.6097C300.959 33.8783 299.57 33.8446 298.237 33.5111C296.905 33.1776 295.663 32.5526 294.602 31.6811C293.54 30.8096 292.686 29.7133 292.099 28.4714C291.513 27.2296 291.209 25.873 291.21 24.4996C291.211 23.8927 291.271 23.2873 291.39 22.692C291.439 22.4394 291.398 22.1775 291.274 21.9521C290.761 21.0188 290.564 19.9442 290.714 18.8897C290.864 17.8353 291.353 16.8581 292.106 16.105C292.859 15.352 293.836 14.8638 294.891 14.7139C295.945 14.5639 297.02 14.7604 297.953 15.2737C298.179 15.3985 298.441 15.4395 298.694 15.3895C300.041 15.1211 301.431 15.1549 302.763 15.4885C304.095 15.8221 305.336 16.4472 306.398 17.3186C307.459 18.1901 308.314 19.2863 308.9 20.5281C309.487 21.7699 309.79 23.1263 309.789 24.4996C309.788 25.1065 309.728 25.7119 309.61 26.3072C309.56 26.5598 309.601 26.8217 309.726 27.047C310.138 27.7958 310.348 28.639 310.335 29.4936C310.322 30.3482 310.086 31.1847 309.651 31.9204C309.216 32.6562 308.597 33.2659 307.855 33.6894C307.112 34.1129 306.272 34.3355 305.417 34.3353Z" fill="#222222"/>
</svg>
